# MagicaVoxel @ Ephtracy

# material
mtllib aptstack.mtl
usemtl palette

# normals
vn -1 0 0
vn 1 0 0
vn 0 0 1
vn 0 0 -1
vn 0 -1 0
vn 0 1 0

# texcoords
vt 0.673828 0.5
vt 0.958984 0.5
vt 0.974609 0.5
vt 0.986328 0.5

# verts
v -63 0 43
v -63 0 42
v -63 0 -62
v -63 0 -63
v -63 71 41
v -63 71 -61
v -63 75 43
v -63 75 42
v -63 75 41
v -63 75 -61
v -63 75 -62
v -63 75 -63
v -63 102 43
v -63 102 42
v -63 102 41
v -63 102 -61
v -63 102 -62
v -63 102 -63
v -63 105 41
v -63 105 -61
v -63 126 43
v -63 126 42
v -63 126 -62
v -63 126 -63
v -62 71 41
v -62 71 -61
v -62 75 41
v -62 75 -61
v -62 102 41
v -62 102 -61
v -62 105 41
v -62 105 -61
v -61 16 47
v -61 16 46
v -61 16 43
v -61 24 47
v -61 24 46
v -61 24 43
v -60 75 42
v -60 75 -62
v -60 75 -63
v -60 102 42
v -60 102 -62
v -60 102 -63
v -46 22 41
v -46 22 32
v -46 41 41
v -46 41 32
v -31 22 41
v -31 22 32
v -31 41 41
v -31 41 32
v 14 29 41
v 14 29 40
v 14 29 32
v 14 39 41
v 14 39 32
v 26 22 41
v 26 22 32
v 26 41 41
v 26 41 32
v 41 22 42
v 41 22 41
v 41 22 32
v 41 41 42
v 41 41 32
v 43 76 41
v 43 76 31
v 43 83 42
v 43 83 41
v 43 102 42
v 43 102 31
v 44 19 43
v 44 19 42
v 44 44 43
v 44 44 42
v 44 49 42
v 44 49 32
v 44 55 43
v 44 55 42
v 44 70 43
v 44 70 32
v 45 19 46
v 45 19 43
v 45 24 46
v 45 24 43
v 45 73 43
v 45 73 42
v 45 76 43
v 45 76 42
v 45 102 43
v 45 102 42
v 45 105 43
v 45 105 42
v 45 107 42
v 45 107 27
v 45 112 43
v 45 112 42
v 45 124 43
v 45 124 27
v -60 19 46
v -60 19 43
v -60 24 46
v -60 24 43
v -60 73 43
v -60 73 42
v -60 75 43
v -60 75 42
v -60 102 43
v -60 102 42
v -60 105 43
v -60 105 42
v -60 107 42
v -60 107 27
v -60 112 43
v -60 112 42
v -60 124 43
v -60 124 27
v -59 19 43
v -59 19 42
v -59 44 43
v -59 44 42
v -59 49 42
v -59 49 32
v -59 55 43
v -59 55 42
v -59 70 43
v -59 70 32
v -57 76 41
v -57 76 31
v -57 83 42
v -57 83 41
v -57 102 42
v -57 102 31
v -56 22 42
v -56 22 41
v -56 22 32
v -56 41 42
v -56 41 32
v -41 22 41
v -41 22 32
v -41 41 41
v -41 41 32
v -29 29 41
v -29 29 40
v -29 29 32
v -29 39 41
v -29 39 32
v 16 22 41
v 16 22 32
v 16 41 41
v 16 41 32
v 31 22 41
v 31 22 40
v 31 22 32
v 31 41 41
v 31 41 40
v 31 41 32
v 46 16 47
v 46 16 46
v 46 16 43
v 46 24 47
v 46 24 46
v 46 24 43
v 46 76 42
v 46 76 41
v 46 76 -60
v 46 76 -62
v 46 76 -63
v 46 102 42
v 46 102 41
v 46 102 -60
v 46 102 -62
v 46 102 -63
v 47 72 41
v 47 72 -60
v 47 72 -61
v 47 76 41
v 47 76 -60
v 47 76 -61
v 47 102 41
v 47 102 -60
v 47 102 -61
v 47 106 41
v 47 106 -60
v 47 106 -61
v 48 0 43
v 48 0 42
v 48 0 -62
v 48 0 -63
v 48 72 41
v 48 72 -61
v 48 76 43
v 48 76 42
v 48 76 41
v 48 76 -61
v 48 76 -62
v 48 76 -63
v 48 102 43
v 48 102 42
v 48 102 41
v 48 102 -61
v 48 102 -62
v 48 102 -63
v 48 106 41
v 48 106 -61
v 48 126 43
v 48 126 42
v 48 126 -62
v 48 126 -63
v -61 16 47
v -61 24 47
v 46 16 47
v 46 24 47
v -63 0 43
v -63 75 43
v -63 102 43
v -63 126 43
v -61 16 43
v -61 24 43
v -61 112 43
v -61 124 43
v -60 19 43
v -60 24 43
v -60 55 43
v -60 70 43
v -60 73 43
v -60 75 43
v -60 102 43
v -60 105 43
v -60 112 43
v -60 124 43
v -60 125 43
v -59 19 43
v -59 44 43
v -59 55 43
v -59 70 43
v -59 71 43
v 44 19 43
v 44 44 43
v 44 55 43
v 44 70 43
v 44 71 43
v 45 19 43
v 45 24 43
v 45 55 43
v 45 70 43
v 45 73 43
v 45 76 43
v 45 102 43
v 45 105 43
v 45 112 43
v 45 124 43
v 45 125 43
v 46 16 43
v 46 24 43
v 46 112 43
v 46 124 43
v 48 0 43
v 48 76 43
v 48 102 43
v 48 126 43
v -60 73 42
v -60 75 42
v -60 102 42
v -60 105 42
v -59 19 42
v -59 44 42
v -59 75 42
v -59 102 42
v -58 83 42
v -58 102 42
v -57 22 42
v -57 41 42
v -57 83 42
v -57 102 42
v -57 103 42
v -56 22 42
v -56 41 42
v -56 42 42
v 41 22 42
v 41 41 42
v 41 42 42
v 42 22 42
v 42 41 42
v 43 83 42
v 43 102 42
v 43 103 42
v 44 19 42
v 44 44 42
v 44 83 42
v 44 102 42
v 45 73 42
v 45 76 42
v 45 102 42
v 45 105 42
v 46 76 42
v 46 102 42
v -46 22 41
v -46 41 41
v -45 22 41
v -45 41 41
v -42 22 41
v -42 41 41
v -41 22 41
v -41 41 41
v -31 22 41
v -31 41 41
v -30 22 41
v -30 29 41
v -30 39 41
v -30 41 41
v -29 29 41
v -29 39 41
v -29 40 41
v 14 29 41
v 14 39 41
v 14 40 41
v 15 22 41
v 15 29 41
v 15 39 41
v 15 41 41
v 16 22 41
v 16 41 41
v 26 22 41
v 26 41 41
v 27 22 41
v 27 41 41
v 31 22 41
v 31 41 41
v -59 49 32
v -59 70 32
v -56 22 32
v -56 41 32
v -46 22 32
v -46 41 32
v -41 22 32
v -41 41 32
v -31 22 32
v -31 41 32
v -29 29 32
v -29 39 32
v 14 29 32
v 14 39 32
v 16 22 32
v 16 41 32
v 26 22 32
v 26 41 32
v 31 22 32
v 31 41 32
v 41 22 32
v 41 41 32
v 44 49 32
v 44 70 32
v -57 76 31
v -57 102 31
v 43 76 31
v 43 102 31
v -60 107 27
v -60 124 27
v 45 107 27
v 45 124 27
v -63 71 -61
v -63 75 -61
v -63 102 -61
v -63 105 -61
v -62 71 -61
v -62 75 -61
v -62 102 -61
v -62 105 -61
v 47 72 -61
v 47 76 -61
v 47 102 -61
v 47 106 -61
v 48 72 -61
v 48 76 -61
v 48 102 -61
v 48 106 -61
v -60 19 46
v -60 24 46
v 45 19 46
v 45 24 46
v -60 107 42
v -60 112 42
v -59 49 42
v -59 55 42
v 44 49 42
v 44 55 42
v 45 107 42
v 45 112 42
v -63 71 41
v -63 75 41
v -63 102 41
v -63 105 41
v -62 71 41
v -62 75 41
v -62 102 41
v -62 105 41
v -57 76 41
v -57 83 41
v 43 76 41
v 43 83 41
v 47 72 41
v 47 76 41
v 47 102 41
v 47 106 41
v 48 72 41
v 48 76 41
v 48 102 41
v 48 106 41
v -63 0 -63
v -63 75 -63
v -63 102 -63
v -63 126 -63
v -60 75 -63
v -60 102 -63
v 46 76 -63
v 46 102 -63
v 48 0 -63
v 48 76 -63
v 48 102 -63
v 48 126 -63
v -63 0 43
v 48 0 43
v -63 0 42
v 48 0 42
v -63 0 -62
v 48 0 -62
v -63 0 -63
v 48 0 -63
v -61 16 47
v 46 16 47
v -61 16 46
v 46 16 46
v -61 16 43
v 46 16 43
v -29 39 41
v 14 39 41
v -29 39 32
v 14 39 32
v -56 41 42
v 41 41 42
v -46 41 41
v -45 41 41
v -42 41 41
v -41 41 41
v -31 41 41
v -30 41 41
v 15 41 41
v 16 41 41
v 26 41 41
v 27 41 41
v 31 41 41
v 31 41 40
v -56 41 32
v -46 41 32
v -41 41 32
v -31 41 32
v 16 41 32
v 26 41 32
v 31 41 32
v 41 41 32
v -59 44 43
v 44 44 43
v -59 44 42
v 44 44 42
v -59 70 43
v 44 70 43
v -59 70 32
v 44 70 32
v -63 102 43
v -60 102 43
v 45 102 43
v 48 102 43
v -63 102 42
v -60 102 42
v -57 102 42
v 43 102 42
v 45 102 42
v 46 102 42
v 48 102 42
v -63 102 41
v -62 102 41
v -61 102 41
v 46 102 41
v 47 102 41
v 48 102 41
v -57 102 31
v 43 102 31
v 46 102 -60
v 47 102 -60
v -63 102 -61
v -62 102 -61
v -61 102 -61
v 47 102 -61
v 48 102 -61
v -63 102 -62
v -60 102 -62
v 46 102 -62
v 48 102 -62
v -63 102 -63
v -60 102 -63
v 46 102 -63
v 48 102 -63
v -60 105 43
v 45 105 43
v -60 105 42
v 45 105 42
v -63 105 41
v -62 105 41
v -63 105 -61
v -62 105 -61
v 47 106 41
v 48 106 41
v 47 106 -60
v 47 106 -61
v 48 106 -61
v -60 124 43
v 45 124 43
v -60 124 27
v 45 124 27
v -60 19 46
v 45 19 46
v -60 19 43
v -59 19 43
v 44 19 43
v 45 19 43
v -59 19 42
v 44 19 42
v -56 22 42
v 41 22 42
v -56 22 41
v -46 22 41
v -45 22 41
v -42 22 41
v -41 22 41
v -31 22 41
v -30 22 41
v 15 22 41
v 16 22 41
v 26 22 41
v 27 22 41
v 31 22 41
v 41 22 41
v 31 22 40
v -56 22 32
v -46 22 32
v -41 22 32
v -31 22 32
v 16 22 32
v 26 22 32
v 31 22 32
v 41 22 32
v -61 24 47
v 46 24 47
v -61 24 46
v -60 24 46
v 45 24 46
v 46 24 46
v -61 24 43
v -60 24 43
v 45 24 43
v 46 24 43
v -29 29 41
v 14 29 41
v -29 29 40
v 14 29 40
v -29 29 32
v 14 29 32
v -59 49 42
v 44 49 42
v -59 49 32
v 44 49 32
v -59 55 43
v 44 55 43
v -59 55 42
v 44 55 42
v -63 71 41
v -62 71 41
v -63 71 -61
v -62 71 -61
v 47 72 41
v 48 72 41
v 47 72 -60
v 47 72 -61
v 48 72 -61
v -60 73 43
v 45 73 43
v -60 73 42
v 45 73 42
v -63 75 43
v -60 75 43
v -63 75 42
v -60 75 42
v -63 75 41
v -62 75 41
v -61 75 41
v -63 75 -61
v -62 75 -61
v -61 75 -61
v -63 75 -62
v -60 75 -62
v -63 75 -63
v -60 75 -63
v 45 76 43
v 48 76 43
v 45 76 42
v 46 76 42
v 48 76 42
v -57 76 41
v 43 76 41
v 46 76 41
v 47 76 41
v 48 76 41
v -57 76 31
v 43 76 31
v 46 76 -60
v 47 76 -60
v 47 76 -61
v 48 76 -61
v 46 76 -62
v 48 76 -62
v 46 76 -63
v 48 76 -63
v -57 83 42
v 43 83 42
v -57 83 41
v 43 83 41
v -60 107 42
v 45 107 42
v -60 107 27
v 45 107 27
v -60 112 43
v 45 112 43
v -60 112 42
v 45 112 42
v -63 126 43
v 48 126 43
v -63 126 42
v 48 126 42
v -63 126 -62
v 48 126 -62
v -63 126 -63
v 48 126 -63

# faces
f 5/1/1 3/1/1 2/1/1
f 6/1/1 3/1/1 5/1/1
f 7/3/1 2/3/1 1/3/1
f 8/1/1 5/1/1 2/1/1
f 8/3/1 2/3/1 7/3/1
f 9/1/1 5/1/1 8/1/1
f 10/1/1 3/1/1 6/1/1
f 11/2/1 4/2/1 3/2/1
f 11/1/1 3/1/1 10/1/1
f 12/2/1 4/2/1 11/2/1
f 19/1/1 15/1/1 14/1/1
f 20/1/1 17/1/1 16/1/1
f 21/3/1 14/3/1 13/3/1
f 22/1/1 20/1/1 19/1/1
f 22/3/1 14/3/1 21/3/1
f 22/1/1 19/1/1 14/1/1
f 23/2/1 18/2/1 17/2/1
f 23/1/1 20/1/1 22/1/1
f 23/1/1 17/1/1 20/1/1
f 24/2/1 18/2/1 23/2/1
f 27/3/1 26/3/1 25/3/1
f 28/3/1 26/3/1 27/3/1
f 31/3/1 30/3/1 29/3/1
f 32/3/1 30/3/1 31/3/1
f 36/3/1 34/3/1 33/3/1
f 37/1/1 35/1/1 34/1/1
f 37/3/1 34/3/1 36/3/1
f 38/1/1 35/1/1 37/1/1
f 42/4/1 40/4/1 39/4/1
f 43/2/1 41/2/1 40/2/1
f 43/4/1 40/4/1 42/4/1
f 44/2/1 41/2/1 43/2/1
f 47/2/1 46/2/1 45/2/1
f 48/2/1 46/2/1 47/2/1
f 51/2/1 50/2/1 49/2/1
f 52/2/1 50/2/1 51/2/1
f 56/2/1 54/2/1 53/2/1
f 56/2/1 55/2/1 54/2/1
f 57/2/1 55/2/1 56/2/1
f 60/2/1 59/2/1 58/2/1
f 61/2/1 59/2/1 60/2/1
f 65/2/1 63/2/1 62/2/1
f 65/2/1 64/2/1 63/2/1
f 66/2/1 64/2/1 65/2/1
f 70/2/1 68/2/1 67/2/1
f 71/2/1 70/2/1 69/2/1
f 72/2/1 68/2/1 70/2/1
f 72/2/1 70/2/1 71/2/1
f 75/3/1 74/3/1 73/3/1
f 76/3/1 74/3/1 75/3/1
f 80/2/1 78/2/1 77/2/1
f 81/2/1 80/2/1 79/2/1
f 82/2/1 78/2/1 80/2/1
f 82/2/1 80/2/1 81/2/1
f 85/1/1 84/1/1 83/1/1
f 86/1/1 84/1/1 85/1/1
f 89/3/1 88/3/1 87/3/1
f 90/3/1 88/3/1 89/3/1
f 93/3/1 92/3/1 91/3/1
f 94/3/1 92/3/1 93/3/1
f 98/2/1 96/2/1 95/2/1
f 99/2/1 98/2/1 97/2/1
f 100/2/1 96/2/1 98/2/1
f 100/2/1 98/2/1 99/2/1
f 101/1/2 102/1/2 103/1/2
f 103/1/2 102/1/2 104/1/2
f 105/3/2 106/3/2 107/3/2
f 107/3/2 106/3/2 108/3/2
f 109/3/2 110/3/2 111/3/2
f 111/3/2 110/3/2 112/3/2
f 113/2/2 114/2/2 116/2/2
f 115/2/2 116/2/2 117/2/2
f 116/2/2 114/2/2 118/2/2
f 117/2/2 116/2/2 118/2/2
f 119/3/2 120/3/2 121/3/2
f 121/3/2 120/3/2 122/3/2
f 123/2/2 124/2/2 126/2/2
f 125/2/2 126/2/2 127/2/2
f 126/2/2 124/2/2 128/2/2
f 127/2/2 126/2/2 128/2/2
f 129/2/2 130/2/2 132/2/2
f 131/2/2 132/2/2 133/2/2
f 132/2/2 130/2/2 134/2/2
f 133/2/2 132/2/2 134/2/2
f 135/2/2 136/2/2 138/2/2
f 136/2/2 137/2/2 138/2/2
f 138/2/2 137/2/2 139/2/2
f 140/2/2 141/2/2 142/2/2
f 142/2/2 141/2/2 143/2/2
f 144/2/2 145/2/2 147/2/2
f 145/2/2 146/2/2 147/2/2
f 147/2/2 146/2/2 148/2/2
f 149/2/2 150/2/2 151/2/2
f 151/2/2 150/2/2 152/2/2
f 153/3/2 154/3/2 156/3/2
f 154/1/2 155/1/2 157/1/2
f 156/3/2 154/3/2 157/3/2
f 157/1/2 155/1/2 158/1/2
f 159/3/2 160/3/2 162/3/2
f 160/1/2 161/1/2 163/1/2
f 162/3/2 160/3/2 163/3/2
f 163/1/2 161/1/2 164/1/2
f 165/4/2 166/4/2 170/4/2
f 166/4/2 167/4/2 170/4/2
f 167/4/2 168/4/2 170/4/2
f 170/4/2 168/4/2 171/4/2
f 171/4/2 168/4/2 172/4/2
f 168/2/2 169/2/2 173/2/2
f 172/4/2 168/4/2 173/4/2
f 173/2/2 169/2/2 174/2/2
f 175/3/2 176/3/2 178/3/2
f 176/1/2 177/1/2 179/1/2
f 178/3/2 176/3/2 179/3/2
f 179/1/2 177/1/2 180/1/2
f 181/3/2 182/3/2 184/3/2
f 182/1/2 183/1/2 185/1/2
f 184/3/2 182/3/2 185/3/2
f 185/1/2 183/1/2 186/1/2
f 188/1/2 189/1/2 191/1/2
f 191/1/2 189/1/2 192/1/2
f 187/3/2 188/3/2 193/3/2
f 188/1/2 191/1/2 194/1/2
f 193/3/2 188/3/2 194/3/2
f 194/1/2 191/1/2 195/1/2
f 192/1/2 189/1/2 196/1/2
f 189/2/2 190/2/2 197/2/2
f 196/1/2 189/1/2 197/1/2
f 197/2/2 190/2/2 198/2/2
f 200/1/2 201/1/2 205/1/2
f 202/1/2 203/1/2 206/1/2
f 199/3/2 200/3/2 207/3/2
f 205/1/2 206/1/2 208/1/2
f 207/3/2 200/3/2 208/3/2
f 200/1/2 205/1/2 208/1/2
f 203/2/2 204/2/2 209/2/2
f 208/1/2 206/1/2 209/1/2
f 206/1/2 203/1/2 209/1/2
f 209/2/2 204/2/2 210/2/2
f 213/3/3 212/3/3 211/3/3
f 214/3/3 212/3/3 213/3/3
f 219/3/3 216/3/3 215/3/3
f 220/3/3 216/3/3 219/3/3
f 221/3/3 218/3/3 217/3/3
f 222/3/3 218/3/3 221/3/3
f 224/3/3 216/3/3 220/3/3
f 225/3/3 216/3/3 224/3/3
f 226/3/3 216/3/3 225/3/3
f 227/3/3 216/3/3 226/3/3
f 228/3/3 216/3/3 227/3/3
f 229/3/3 221/3/3 217/3/3
f 230/3/3 221/3/3 229/3/3
f 231/2/3 222/2/3 221/2/3
f 231/3/3 221/3/3 230/3/3
f 232/3/3 218/3/3 222/3/3
f 232/2/3 222/2/3 231/2/3
f 233/3/3 218/3/3 232/3/3
f 234/3/3 224/3/3 223/3/3
f 234/3/3 225/3/3 224/3/3
f 235/3/3 225/3/3 234/3/3
f 236/2/3 226/2/3 225/2/3
f 236/3/3 225/3/3 235/3/3
f 237/3/3 227/3/3 226/3/3
f 237/2/3 226/2/3 236/2/3
f 238/3/3 227/3/3 237/3/3
f 240/3/3 236/3/3 235/3/3
f 241/3/3 236/3/3 240/3/3
f 242/2/3 238/2/3 237/2/3
f 243/3/3 227/3/3 238/3/3
f 243/2/3 238/2/3 242/2/3
f 244/3/3 241/3/3 240/3/3
f 244/3/3 240/3/3 239/3/3
f 245/3/3 241/3/3 244/3/3
f 246/2/3 242/2/3 241/2/3
f 246/3/3 241/3/3 245/3/3
f 247/3/3 243/3/3 242/3/3
f 247/2/3 242/2/3 246/2/3
f 248/3/3 227/3/3 243/3/3
f 248/3/3 243/3/3 247/3/3
f 251/3/3 231/3/3 230/3/3
f 252/3/3 231/3/3 251/3/3
f 253/2/3 233/2/3 232/2/3
f 254/3/3 218/3/3 233/3/3
f 254/2/3 233/2/3 253/2/3
f 255/3/3 219/3/3 215/3/3
f 256/3/3 249/3/3 248/3/3
f 256/3/3 247/3/3 246/3/3
f 256/3/3 246/3/3 245/3/3
f 256/3/3 248/3/3 247/3/3
f 257/2/3 253/2/3 252/2/3
f 257/3/3 252/3/3 251/3/3
f 257/3/3 251/3/3 250/3/3
f 258/3/3 254/3/3 253/3/3
f 258/2/3 253/2/3 257/2/3
f 259/3/3 256/3/3 255/3/3
f 259/3/3 255/3/3 215/3/3
f 260/3/3 249/3/3 256/3/3
f 260/3/3 256/3/3 259/3/3
f 261/3/3 258/3/3 257/3/3
f 261/3/3 257/3/3 250/3/3
f 262/3/3 254/3/3 258/3/3
f 262/3/3 258/3/3 261/3/3
f 262/3/3 218/3/3 254/3/3
f 269/1/3 264/1/3 263/1/3
f 269/4/3 265/4/3 264/4/3
f 270/1/3 266/1/3 265/1/3
f 270/4/3 265/4/3 269/4/3
f 271/1/3 270/1/3 269/1/3
f 272/1/3 266/1/3 270/1/3
f 272/1/3 270/1/3 271/1/3
f 273/3/3 268/3/3 267/3/3
f 274/3/3 268/3/3 273/3/3
f 275/1/3 271/1/3 269/1/3
f 275/2/3 272/2/3 271/2/3
f 276/1/3 266/1/3 272/1/3
f 276/2/3 272/2/3 275/2/3
f 277/1/3 266/1/3 276/1/3
f 278/2/3 274/2/3 273/2/3
f 278/3/3 273/3/3 267/3/3
f 279/3/3 268/3/3 274/3/3
f 279/2/3 274/2/3 278/2/3
f 280/3/3 268/3/3 279/3/3
f 281/3/3 278/3/3 267/3/3
f 282/2/3 280/2/3 279/2/3
f 283/3/3 268/3/3 280/3/3
f 283/2/3 280/2/3 282/2/3
f 284/2/3 282/2/3 281/2/3
f 284/3/3 281/3/3 267/3/3
f 285/3/3 283/3/3 282/3/3
f 285/2/3 282/2/3 284/2/3
f 286/1/3 275/1/3 269/1/3
f 287/2/3 277/2/3 276/2/3
f 288/1/3 266/1/3 277/1/3
f 288/2/3 277/2/3 287/2/3
f 289/3/3 284/3/3 267/3/3
f 289/3/3 285/3/3 284/3/3
f 290/3/3 283/3/3 285/3/3
f 290/3/3 285/3/3 289/3/3
f 290/3/3 268/3/3 283/3/3
f 291/2/3 287/2/3 286/2/3
f 291/1/3 286/1/3 269/1/3
f 292/1/3 288/1/3 287/1/3
f 292/2/3 287/2/3 291/2/3
f 293/1/3 269/1/3 263/1/3
f 293/1/3 292/1/3 291/1/3
f 293/1/3 291/1/3 269/1/3
f 294/1/3 292/1/3 293/1/3
f 295/1/3 288/1/3 292/1/3
f 295/1/3 292/1/3 294/1/3
f 296/1/3 266/1/3 288/1/3
f 296/1/3 288/1/3 295/1/3
f 297/4/3 295/4/3 294/4/3
f 298/4/3 295/4/3 297/4/3
f 301/2/3 300/2/3 299/2/3
f 302/2/3 300/2/3 301/2/3
f 303/3/3 302/3/3 301/3/3
f 304/3/3 302/3/3 303/3/3
f 305/2/3 304/2/3 303/2/3
f 306/2/3 304/2/3 305/2/3
f 309/2/3 308/2/3 307/2/3
f 310/2/3 308/2/3 309/2/3
f 311/2/3 308/2/3 310/2/3
f 312/2/3 308/2/3 311/2/3
f 313/3/3 310/3/3 309/3/3
f 313/2/3 311/2/3 310/2/3
f 314/3/3 312/3/3 311/3/3
f 314/2/3 311/2/3 313/2/3
f 315/3/3 312/3/3 314/3/3
f 316/3/3 313/3/3 309/3/3
f 317/2/3 315/2/3 314/2/3
f 318/3/3 312/3/3 315/3/3
f 318/2/3 315/2/3 317/2/3
f 319/3/3 316/3/3 309/3/3
f 320/2/3 317/2/3 316/2/3
f 320/3/3 316/3/3 319/3/3
f 321/3/3 318/3/3 317/3/3
f 321/2/3 317/2/3 320/2/3
f 322/3/3 312/3/3 318/3/3
f 322/3/3 318/3/3 321/3/3
f 323/2/3 321/2/3 320/2/3
f 323/2/3 320/2/3 319/2/3
f 323/2/3 322/2/3 321/2/3
f 324/2/3 322/2/3 323/2/3
f 327/2/3 326/2/3 325/2/3
f 328/2/3 326/2/3 327/2/3
f 329/3/3 328/3/3 327/3/3
f 330/3/3 328/3/3 329/3/3
f 335/4/3 334/4/3 333/4/3
f 336/4/3 334/4/3 335/4/3
f 339/4/3 338/4/3 337/4/3
f 340/4/3 338/4/3 339/4/3
f 343/4/3 342/4/3 341/4/3
f 344/4/3 342/4/3 343/4/3
f 347/4/3 346/4/3 345/4/3
f 348/4/3 346/4/3 347/4/3
f 351/4/3 350/4/3 349/4/3
f 352/4/3 350/4/3 351/4/3
f 353/4/3 332/4/3 331/4/3
f 354/4/3 332/4/3 353/4/3
f 357/4/3 356/4/3 355/4/3
f 358/4/3 356/4/3 357/4/3
f 361/4/3 360/4/3 359/4/3
f 362/4/3 360/4/3 361/4/3
f 367/1/3 364/1/3 363/1/3
f 368/1/3 364/1/3 367/1/3
f 369/1/3 366/1/3 365/1/3
f 370/1/3 366/1/3 369/1/3
f 375/1/3 372/1/3 371/1/3
f 376/1/3 372/1/3 375/1/3
f 377/1/3 374/1/3 373/1/3
f 378/1/3 374/1/3 377/1/3
f 379/3/4 380/3/4 381/3/4
f 381/3/4 380/3/4 382/3/4
f 385/3/4 386/3/4 387/3/4
f 387/3/4 386/3/4 388/3/4
f 383/3/4 384/3/4 389/3/4
f 389/3/4 384/3/4 390/3/4
f 391/1/4 392/1/4 395/1/4
f 395/1/4 392/1/4 396/1/4
f 393/1/4 394/1/4 397/1/4
f 397/1/4 394/1/4 398/1/4
f 399/1/4 400/1/4 401/1/4
f 401/1/4 400/1/4 402/1/4
f 403/1/4 404/1/4 407/1/4
f 407/1/4 404/1/4 408/1/4
f 405/1/4 406/1/4 409/1/4
f 409/1/4 406/1/4 410/1/4
f 411/2/4 412/2/4 415/2/4
f 413/2/4 414/2/4 416/2/4
f 415/2/4 416/2/4 417/2/4
f 416/2/4 414/2/4 418/2/4
f 417/2/4 416/2/4 418/2/4
f 411/2/4 415/2/4 419/2/4
f 415/2/4 417/2/4 419/2/4
f 419/2/4 417/2/4 420/2/4
f 418/2/4 414/2/4 421/2/4
f 421/2/4 414/2/4 422/2/4
f 425/3/5 424/3/5 423/3/5
f 426/3/5 424/3/5 425/3/5
f 427/1/5 426/1/5 425/1/5
f 428/1/5 426/1/5 427/1/5
f 429/2/5 428/2/5 427/2/5
f 430/2/5 428/2/5 429/2/5
f 433/3/5 432/3/5 431/3/5
f 434/3/5 432/3/5 433/3/5
f 435/1/5 434/1/5 433/1/5
f 436/1/5 434/1/5 435/1/5
f 439/2/5 438/2/5 437/2/5
f 440/2/5 438/2/5 439/2/5
f 443/2/5 442/2/5 441/2/5
f 444/2/5 442/2/5 443/2/5
f 445/2/5 442/2/5 444/2/5
f 446/2/5 442/2/5 445/2/5
f 447/2/5 442/2/5 446/2/5
f 448/2/5 442/2/5 447/2/5
f 449/2/5 442/2/5 448/2/5
f 450/2/5 442/2/5 449/2/5
f 451/2/5 442/2/5 450/2/5
f 452/2/5 442/2/5 451/2/5
f 453/2/5 442/2/5 452/2/5
f 454/2/5 442/2/5 453/2/5
f 455/2/5 443/2/5 441/2/5
f 456/2/5 443/2/5 455/2/5
f 457/2/5 447/2/5 446/2/5
f 458/2/5 447/2/5 457/2/5
f 459/2/5 451/2/5 450/2/5
f 460/2/5 451/2/5 459/2/5
f 461/2/5 442/2/5 454/2/5
f 462/2/5 442/2/5 461/2/5
f 465/3/5 464/3/5 463/3/5
f 466/3/5 464/3/5 465/3/5
f 469/2/5 468/2/5 467/2/5
f 470/2/5 468/2/5 469/2/5
f 475/3/5 472/3/5 471/3/5
f 476/3/5 472/3/5 475/3/5
f 479/3/5 474/3/5 473/3/5
f 480/3/5 474/3/5 479/3/5
f 481/3/5 474/3/5 480/3/5
f 482/1/5 476/1/5 475/1/5
f 483/1/5 476/1/5 482/1/5
f 484/1/5 476/1/5 483/1/5
f 485/1/5 481/1/5 480/1/5
f 486/1/5 481/1/5 485/1/5
f 487/1/5 481/1/5 486/1/5
f 488/2/5 478/2/5 477/2/5
f 489/2/5 478/2/5 488/2/5
f 490/3/5 486/3/5 485/3/5
f 491/3/5 486/3/5 490/3/5
f 493/3/5 484/3/5 483/3/5
f 494/1/5 476/1/5 484/1/5
f 494/3/5 484/3/5 493/3/5
f 495/1/5 491/1/5 490/1/5
f 497/1/5 493/1/5 492/1/5
f 497/1/5 494/1/5 493/1/5
f 498/1/5 476/1/5 494/1/5
f 498/1/5 494/1/5 497/1/5
f 499/1/5 496/1/5 495/1/5
f 499/1/5 495/1/5 490/1/5
f 500/1/5 496/1/5 499/1/5
f 501/2/5 498/2/5 497/2/5
f 502/2/5 498/2/5 501/2/5
f 503/2/5 500/2/5 499/2/5
f 504/2/5 500/2/5 503/2/5
f 507/3/5 506/3/5 505/3/5
f 508/3/5 506/3/5 507/3/5
f 511/1/5 510/1/5 509/1/5
f 512/1/5 510/1/5 511/1/5
f 515/1/5 514/1/5 513/1/5
f 516/1/5 514/1/5 515/1/5
f 517/1/5 514/1/5 516/1/5
f 520/2/5 519/2/5 518/2/5
f 521/2/5 519/2/5 520/2/5
f 522/1/6 523/1/6 524/1/6
f 524/1/6 523/1/6 525/1/6
f 525/1/6 523/1/6 526/1/6
f 526/1/6 523/1/6 527/1/6
f 525/1/6 526/1/6 528/1/6
f 528/1/6 526/1/6 529/1/6
f 530/3/6 531/3/6 532/3/6
f 532/3/6 531/3/6 533/3/6
f 533/3/6 531/3/6 534/3/6
f 534/3/6 531/3/6 535/3/6
f 535/3/6 531/3/6 536/3/6
f 536/3/6 531/3/6 537/3/6
f 537/3/6 531/3/6 538/3/6
f 538/3/6 531/3/6 539/3/6
f 539/3/6 531/3/6 540/3/6
f 540/3/6 531/3/6 541/3/6
f 541/3/6 531/3/6 542/3/6
f 542/3/6 531/3/6 543/3/6
f 543/3/6 531/3/6 544/3/6
f 543/1/6 544/1/6 545/1/6
f 532/1/6 533/1/6 546/1/6
f 546/1/6 533/1/6 547/1/6
f 536/1/6 537/1/6 548/1/6
f 548/1/6 537/1/6 549/1/6
f 540/1/6 541/1/6 550/1/6
f 550/1/6 541/1/6 551/1/6
f 545/1/6 544/1/6 552/1/6
f 552/1/6 544/1/6 553/1/6
f 554/3/6 555/3/6 556/3/6
f 556/3/6 555/3/6 557/3/6
f 557/3/6 555/3/6 558/3/6
f 558/3/6 555/3/6 559/3/6
f 556/1/6 557/1/6 560/1/6
f 560/1/6 557/1/6 561/1/6
f 558/1/6 559/1/6 562/1/6
f 562/1/6 559/1/6 563/1/6
f 564/3/6 565/3/6 566/3/6
f 566/3/6 565/3/6 567/3/6
f 566/1/6 567/1/6 568/1/6
f 568/1/6 567/1/6 569/1/6
f 570/1/6 571/1/6 572/1/6
f 572/1/6 571/1/6 573/1/6
f 574/3/6 575/3/6 576/3/6
f 576/3/6 575/3/6 577/3/6
f 578/1/6 579/1/6 580/1/6
f 580/1/6 579/1/6 581/1/6
f 582/1/6 583/1/6 584/1/6
f 584/1/6 583/1/6 585/1/6
f 585/1/6 583/1/6 586/1/6
f 587/3/6 588/3/6 589/3/6
f 589/3/6 588/3/6 590/3/6
f 591/3/6 592/3/6 593/3/6
f 593/3/6 592/3/6 594/3/6
f 593/1/6 594/1/6 595/1/6
f 595/1/6 594/1/6 596/1/6
f 596/1/6 594/1/6 597/1/6
f 596/3/6 597/3/6 599/3/6
f 597/1/6 594/1/6 600/1/6
f 599/3/6 597/3/6 600/3/6
f 598/1/6 599/1/6 601/1/6
f 599/1/6 600/1/6 601/1/6
f 600/1/6 594/1/6 602/1/6
f 601/1/6 600/1/6 602/1/6
f 601/2/6 602/2/6 603/2/6
f 603/2/6 602/2/6 604/2/6
f 605/3/6 606/3/6 607/3/6
f 607/3/6 606/3/6 608/3/6
f 608/3/6 606/3/6 609/3/6
f 608/1/6 609/1/6 612/1/6
f 612/1/6 609/1/6 613/1/6
f 613/1/6 609/1/6 614/1/6
f 610/1/6 611/1/6 615/1/6
f 615/1/6 611/1/6 616/1/6
f 612/3/6 613/3/6 617/3/6
f 617/3/6 613/3/6 618/3/6
f 617/1/6 618/1/6 619/1/6
f 617/1/6 619/1/6 621/1/6
f 619/1/6 620/1/6 621/1/6
f 621/1/6 620/1/6 622/1/6
f 621/2/6 622/2/6 623/2/6
f 623/2/6 622/2/6 624/2/6
f 625/1/6 626/1/6 627/1/6
f 627/1/6 626/1/6 628/1/6
f 629/1/6 630/1/6 631/1/6
f 631/1/6 630/1/6 632/1/6
f 633/3/6 634/3/6 635/3/6
f 635/3/6 634/3/6 636/3/6
f 637/3/6 638/3/6 639/3/6
f 639/3/6 638/3/6 640/3/6
f 639/1/6 640/1/6 641/1/6
f 641/1/6 640/1/6 642/1/6
f 641/2/6 642/2/6 643/2/6
f 643/2/6 642/2/6 644/2/6
